<svg width="312" height="54" viewBox="0 0 312 54" fill="none" xmlns="http://www.w3.org/2000/svg">
<path d="M14.848 42.048H12.032L9.664 28.544H2.944L0.575997 42.048H-2.68221e-06L7.488 -2.67029e-05L14.848 42.048ZM9.6 27.968L6.336 9.40797L3.072 27.968H9.6ZM49.782 29.312C49.782 33.0666 48.438 36.288 45.75 38.976C43.1047 41.6213 39.9047 42.944 36.15 42.944C32.3953 42.944 29.174 41.6213 26.486 38.976C23.8407 36.288 22.518 33.0666 22.518 29.312V3.13597H25.334V21.056C27.894 17.472 31.4993 15.68 36.15 15.68C39.9473 15.68 43.1687 17.0026 45.814 19.648C48.4593 22.2933 49.782 25.5146 49.782 29.312ZM47.03 29.312C47.03 25.6853 45.9633 22.6133 43.83 20.096C41.7393 17.536 39.1793 16.256 36.15 16.256C33.1633 16.256 30.6033 17.536 28.47 20.096C26.3793 22.6133 25.334 25.6853 25.334 29.312C25.334 32.896 26.3793 35.968 28.47 38.528C30.6033 41.088 33.1633 42.368 36.15 42.368C39.1367 42.368 41.6967 41.088 43.83 38.528C45.9633 35.968 47.03 32.896 47.03 29.312ZM84.9695 29.312C84.9695 33.0666 83.6255 36.288 80.9375 38.976C78.2922 41.6213 75.0922 42.944 71.3375 42.944C67.5828 42.944 64.3615 41.6213 61.6735 38.976C59.0282 36.288 57.7055 33.0666 57.7055 29.312C57.7055 25.5146 59.0282 22.2933 61.6735 19.648C64.3615 17.0026 67.5828 15.68 71.3375 15.68C75.1348 15.68 78.3562 17.0026 81.0015 19.648C83.6468 22.2933 84.9695 25.5146 84.9695 29.312ZM82.2175 29.312C82.2175 25.6853 81.1508 22.6133 79.0175 20.096C76.9268 17.536 74.3668 16.256 71.3375 16.256C68.3508 16.256 65.7908 17.536 63.6575 20.096C61.5668 22.6133 60.5215 25.6853 60.5215 29.312C60.5215 32.896 61.5668 35.968 63.6575 38.528C65.7908 41.088 68.3508 42.368 71.3375 42.368C74.3242 42.368 76.8842 41.088 79.0175 38.528C81.1508 35.968 82.2175 32.896 82.2175 29.312ZM103.773 37.056C103.773 38.592 103.218 39.9146 102.109 41.024C101.042 42.1333 99.741 42.688 98.205 42.688C96.669 42.688 95.3463 42.1333 94.237 41.024C93.1277 39.9146 92.573 38.592 92.573 37.056V16.448H93.149V37.056C93.149 38.4213 93.6397 39.616 94.621 40.64C95.6023 41.6213 96.797 42.112 98.205 42.112C98.9303 42.112 99.5703 41.6213 100.125 40.64C100.68 39.616 100.957 38.4213 100.957 37.056V16.448H103.773V37.056ZM119.105 17.024H117.057V42.048H114.305V17.024H112.129V16.448H114.305V9.66397H117.057V16.448H119.105V17.024ZM173.005 42.048H170.253V12.992L161.741 46.272L153.293 13.312V42.048H152.717V-2.67029e-05L162.829 39.488L173.005 0.0639725V42.048ZM221.275 22.336C221.275 27.9253 219.334 32.7466 215.451 36.8C211.611 40.8106 206.939 42.816 201.435 42.816C195.846 42.816 191.046 40.896 187.035 37.056C183.025 33.216 181.019 28.544 181.019 23.04C181.019 17.4506 182.939 12.6506 186.779 8.63997C190.662 4.58664 195.355 2.55997 200.859 2.55997C206.449 2.55997 211.249 4.47997 215.259 8.31997C219.27 12.16 221.275 16.832 221.275 22.336ZM218.652 22.336C218.652 16.96 216.902 12.3946 213.403 8.63997C209.905 4.84264 205.745 2.98664 200.923 3.07197C196.145 3.1573 192.07 5.16264 188.699 9.08797C185.371 12.9706 183.707 17.6213 183.707 23.04C183.707 28.3733 185.457 32.9173 188.955 36.672C192.454 40.384 196.614 42.24 201.435 42.24C206.214 42.24 210.267 40.2986 213.595 36.416C216.966 32.4906 218.652 27.7973 218.652 22.336ZM269.007 48.32C269.007 52.0746 267.066 53.952 263.183 53.952C256.527 53.952 251.429 50.3466 247.887 43.136C246.906 40.2346 245.925 37.3333 244.943 34.432C243.237 30.592 240.741 28.672 237.455 28.672H232.911V42.048H230.159V3.07197H237.455C241.594 3.07197 245.114 4.33064 248.015 6.84797C250.959 9.32264 252.431 12.3093 252.431 15.808C252.431 18.5386 251.45 21.0773 249.487 23.424C247.397 25.984 244.709 27.6266 241.423 28.352C243.514 29.2053 245.391 31.2533 247.055 34.496C248.122 36.9706 249.21 39.4453 250.319 41.92C252.069 45.4186 254.202 48.1493 256.719 50.112C259.066 51.9893 261.434 52.928 263.823 52.928C265.018 52.928 266.042 52.5866 266.896 51.904C267.919 51.0506 268.431 49.856 268.431 48.32C268.431 47.0826 267.877 46.0586 266.767 45.248C265.658 44.48 264.4 44.096 262.992 44.096V43.52C264.485 43.52 265.85 43.968 267.087 44.864C268.367 45.8026 269.007 46.9546 269.007 48.32ZM249.615 15.808C249.615 12.48 248.421 9.64264 246.031 7.29597C243.685 4.9493 240.826 3.77597 237.455 3.77597H232.911V27.968H237.455C240.826 27.968 243.685 26.7946 246.031 24.448C248.421 22.0586 249.615 19.1786 249.615 15.808ZM289.301 28.864C289.301 32.6186 287.915 35.8613 285.141 38.592C282.368 41.28 279.04 42.624 275.157 42.624C271.275 42.624 267.947 41.28 265.173 38.592C262.4 35.904 261.013 32.6613 261.013 28.864C261.013 26.0053 261.845 23.4026 263.509 21.056C265.216 18.7093 267.413 17.024 270.101 16L270.357 16.576C267.755 17.5146 265.621 19.1146 263.957 21.376C262.336 23.5946 261.525 26.0906 261.525 28.864C261.525 32.448 262.891 35.5413 265.621 38.144C268.395 40.7466 271.573 42.048 275.157 42.048C278.229 42.048 280.875 40.768 283.093 38.208C285.312 35.6053 286.421 32.4906 286.421 28.864C286.421 25.3226 285.419 22.4 283.413 20.096C281.451 17.7493 278.912 16.4053 275.797 16.064C273.621 15.808 271.893 15.04 270.613 13.76C269.333 12.48 268.736 10.9013 268.821 9.02397C268.907 7.27464 269.547 5.7813 270.741 4.54397C271.936 3.30664 273.408 2.68797 275.157 2.68797C276.907 2.68797 278.4 3.30664 279.637 4.54397C280.875 5.7813 281.493 7.27464 281.493 9.02397C281.493 10.048 281.237 11.0293 280.725 11.968L280.405 11.84C280.875 10.9866 281.109 10.0693 281.109 9.08797C281.109 7.46664 280.533 6.07997 279.381 4.92797C278.229 3.7333 276.843 3.13597 275.221 3.13597C274.155 3.13597 273.237 3.6053 272.469 4.54397C271.744 5.48264 271.381 6.76264 271.381 8.38397C271.381 11.5413 272.939 13.2693 276.053 13.568C279.851 13.952 283.008 15.6373 285.525 18.624C288.043 21.6106 289.301 25.024 289.301 28.864ZM311.348 42.048H308.532L306.164 28.544H299.444L297.076 42.048H296.5L303.988 -2.67029e-05L311.348 42.048ZM306.1 27.968L302.836 9.40797L299.572 27.968H306.1Z" fill="white"/>
</svg>
