<svg width="82" height="71" viewBox="0 0 82 71" fill="none" xmlns="http://www.w3.org/2000/svg">
<path d="M41 0.5C63.4392 0.5 81.4997 16.1794 81.5 35.3721C81.5 54.5649 63.4394 70.2451 41 70.2451C18.5606 70.2451 0.5 54.5649 0.5 35.3721C0.500299 16.1794 18.5608 0.5 41 0.5Z" stroke="#593718"/>
<g clip-path="url(#clip0_2371_280)">
<path d="M45.1604 31.3072C45.2136 31.2225 45.2773 31.1483 45.3411 31.0636V31.0848C45.8406 30.46 46.5207 29.9623 47.2008 29.5176C48.051 28.967 48.9436 28.4799 49.8469 28.0351C50.8034 27.5692 51.781 27.1456 52.7906 26.8068C53.6939 26.4997 54.6184 26.2667 55.5642 26.0973C56.3825 25.9596 57.2008 25.8749 58.0297 25.8537C58.1253 25.8537 58.2103 25.8537 58.306 25.8537C58.3272 25.8537 58.3485 25.7055 58.3379 25.7161C58.3485 25.6102 58.3485 25.4937 58.3485 25.3878C58.3485 25.2819 58.3485 25.1654 58.3379 25.0595C58.3379 25.0384 58.3379 24.9219 58.306 24.9219C57.4664 24.9219 56.6269 24.996 55.798 25.1231C54.831 25.2819 53.8852 25.5149 52.95 25.8114C51.9086 26.1502 50.9096 26.5844 49.9213 27.0609C48.933 27.5374 48.0616 28.0139 47.1902 28.5857C46.4994 29.0411 45.7981 29.5599 45.2773 30.2059C45.2242 30.2694 45.1817 30.333 45.1286 30.3965C45.0967 30.4389 45.0967 30.5659 45.0967 30.6083C45.0967 30.7248 45.0967 30.8518 45.0967 30.9683C45.0967 31.0636 45.0967 31.1589 45.1179 31.2542C45.1179 31.2754 45.1286 31.3389 45.1604 31.2966V31.3072Z" fill="#593617"/>
<path d="M57.8065 39.2812C57.9128 39.1436 57.9978 38.9847 58.0935 38.8365C58.3273 38.4235 58.5398 37.9893 58.7205 37.5446C58.9968 36.8669 59.2199 36.168 59.39 35.4585C59.6131 34.5161 59.7513 33.5419 59.7938 32.5677C59.8575 31.2652 59.7938 29.9627 59.6025 28.6814C59.5812 28.5332 59.5494 28.3849 59.5281 28.2367C59.5281 28.2155 59.5281 28.1943 59.5069 28.1837C59.5069 28.1731 59.4962 28.1731 59.4856 28.1837C59.4537 28.2155 59.4537 28.3743 59.4537 28.3955C59.4431 28.6073 59.4325 28.8297 59.475 29.0415C59.5068 29.1897 59.5281 29.3485 59.5494 29.4968C59.5494 29.5391 59.56 29.5709 59.5706 29.6133C59.5706 29.6239 59.5706 29.645 59.5706 29.6556C59.5706 29.5921 59.5706 29.7297 59.5706 29.6556C59.5706 29.7297 59.5919 29.8039 59.6025 29.878C59.6237 30.0157 59.6344 30.1639 59.6556 30.3016C59.6556 30.3651 59.6663 30.4392 59.6769 30.5028C59.6769 30.5769 59.6769 30.4075 59.6769 30.4922C59.6769 30.5028 59.6769 30.5239 59.6769 30.5345C59.6769 30.5769 59.6769 30.6087 59.6769 30.651C59.6769 30.7145 59.6769 30.7781 59.6875 30.8522C59.6875 30.884 59.6875 30.9263 59.6875 30.9581C59.6875 30.9793 59.6875 30.9899 59.6875 31.011C59.6875 31.0216 59.6875 31.0322 59.6875 31.0534C59.6875 30.9793 59.6875 30.9581 59.6875 30.9899C59.6875 31.1275 59.6875 31.2652 59.6981 31.4028C59.6981 31.4134 59.6981 31.424 59.6981 31.4452V31.3605C59.6981 31.3605 59.6981 31.3817 59.6981 31.4028C59.6981 31.4346 59.6981 31.4664 59.6981 31.4981C59.6981 31.5617 59.6981 31.6358 59.6981 31.6993C59.6981 31.7311 59.6981 31.7629 59.6981 31.7946C59.6981 31.6358 59.6981 31.6993 59.6981 31.7311C59.6981 31.7417 59.6981 31.7629 59.6981 31.7735C59.6981 31.837 59.6981 31.9111 59.6981 31.9747C59.6981 32.0382 59.6981 32.0911 59.6981 32.1547C59.6981 31.9958 59.6981 32.1123 59.6981 32.1547C59.6981 32.1864 59.6981 32.2288 59.6981 32.2606C59.6981 32.3876 59.6769 32.5041 59.6663 32.6312C59.6663 32.6736 59.6663 32.5253 59.6663 32.5994C59.6663 32.6206 59.6663 32.6312 59.6663 32.6524C59.6663 32.6841 59.6663 32.7053 59.6663 32.7371C59.6663 32.8006 59.6556 32.8642 59.645 32.9171C59.6344 33.0336 59.6237 33.1501 59.6025 33.256C59.6025 33.2877 59.6025 33.3089 59.5919 33.3407C59.5919 33.3618 59.5919 33.3724 59.5919 33.3936C59.5919 33.3936 59.5919 33.3195 59.5919 33.3724C59.5919 33.4254 59.5706 33.4889 59.5706 33.5419C59.5494 33.6478 59.5387 33.7537 59.5175 33.8701C59.475 34.0819 59.4325 34.2937 59.39 34.5055C59.3687 34.6008 59.3474 34.6961 59.3156 34.802C59.3049 34.8443 59.2943 34.8973 59.2837 34.9396C59.2943 34.8867 59.2837 34.9608 59.2837 34.9714C59.2837 35.0032 59.2731 35.0244 59.2624 35.0561C59.2093 35.2361 59.1562 35.4162 59.103 35.6068C58.9968 35.9244 58.8905 36.2421 58.763 36.5492C58.5823 37.0045 58.3698 37.4493 58.136 37.8729C58.0616 37.9999 57.9872 38.127 57.9128 38.2435C57.8809 38.2964 57.8384 38.3494 57.8065 38.4023C57.7747 38.4447 57.7747 38.5823 57.7747 38.6141C57.7747 38.7306 57.7747 38.8577 57.7747 38.9741C57.7747 39.0694 57.7747 39.1647 57.7959 39.26C57.7959 39.2812 57.8065 39.3448 57.8384 39.3024L57.8065 39.2812Z" fill="#593617"/>
<path d="M37.7854 29.4326C37.4772 30.0891 37.2328 30.788 37.1053 31.5081C36.9565 32.3341 36.9352 33.2024 37.0309 34.0283C37.1053 34.6849 37.2753 35.3308 37.5197 35.9344C37.7641 36.538 38.1148 37.1627 38.4974 37.7346C38.9119 38.3593 39.3794 38.9629 39.8683 39.5347C40.1658 39.8842 40.4634 40.2124 40.7822 40.5407C41.1648 40.9431 41.5686 41.3243 41.983 41.6949C42.4506 42.1185 42.9501 42.5103 43.4496 42.8915C44.0128 43.3045 44.5866 43.6857 45.1924 44.0246C45.83 44.3846 46.4889 44.7129 47.169 44.9776C47.339 45.0517 47.5197 45.1152 47.7003 45.1788C47.7322 45.1894 47.7535 44.7446 47.7535 44.7129C47.7535 44.607 47.7535 44.4905 47.7428 44.3846C47.7428 44.3528 47.7428 44.2575 47.711 44.2469C46.9671 43.9822 46.2444 43.6539 45.5537 43.2833C44.9054 42.9339 44.2785 42.5315 43.6727 42.1079C43.1201 41.7161 42.5994 41.2925 42.0893 40.8478C41.643 40.456 41.2179 40.043 40.8034 39.6194C40.4634 39.27 40.1446 38.91 39.8258 38.5393C39.762 38.4546 39.6876 38.3699 39.6239 38.2958V38.317C39.1988 37.7875 38.7843 37.2369 38.423 36.6651C38.0936 36.1462 37.796 35.6061 37.5622 35.0449C37.456 34.7802 37.3603 34.5049 37.2859 34.2295C37.2859 34.2084 37.2859 34.1978 37.2753 34.1766V34.1554C37.2753 34.1236 37.2753 34.1872 37.2753 34.1554C37.2753 34.1236 37.254 34.0813 37.254 34.0495C37.2328 33.986 37.2222 33.9119 37.2115 33.8483C37.2009 33.7848 37.1797 33.7107 37.169 33.6365C37.169 33.6048 37.1584 33.573 37.1584 33.5412C37.1584 33.5201 37.1584 33.4989 37.1584 33.4883C37.1584 33.4883 37.1584 33.5518 37.1584 33.5201C37.1584 33.5095 37.1584 33.4989 37.1584 33.4883C37.1584 33.4248 37.1372 33.3506 37.1372 33.2871C37.1372 33.2659 37.1372 33.2553 37.1372 33.2341C37.1372 33.1706 37.1372 33.3294 37.1372 33.2553C37.1372 33.2236 37.1372 33.1812 37.1372 33.1494C37.1372 33.1283 37.1372 33.1177 37.1372 33.0965C37.1372 33.033 37.1372 33.213 37.1372 33.1388C37.1372 33.0965 37.1372 33.0647 37.1372 33.0224C37.1372 32.9482 37.1372 33.1494 37.1372 33.0859C37.1372 33.0647 37.1372 33.0541 37.1372 33.0329C37.1372 33.0118 37.1372 33.0012 37.1372 32.98V32.9588C37.1372 32.9059 37.1372 33.0859 37.1372 33.0329C37.1372 33.0012 37.1372 32.9694 37.1372 32.9376V32.9165C37.1372 32.8529 37.1372 32.98 37.1372 32.98C37.1372 32.9588 37.1372 32.9376 37.1372 32.9165C37.1372 32.8847 37.1372 32.8529 37.1372 32.8106C37.1372 32.8 37.1372 32.7259 37.1372 32.8C37.1372 32.8741 37.1372 32.8 37.1372 32.7788C37.1372 32.7047 37.1478 32.6306 37.1584 32.5564C37.1584 32.5353 37.1584 32.5247 37.1584 32.5035C37.1584 32.5035 37.1584 32.567 37.1584 32.5353V32.5141C37.1584 32.4717 37.169 32.4294 37.1797 32.3976C37.2009 32.2493 37.2328 32.1011 37.2647 31.9529C37.2647 31.9211 37.2859 31.8787 37.2859 31.847C37.2859 31.847 37.2859 31.8258 37.2859 31.8152C37.2859 31.8152 37.2859 31.7834 37.2859 31.8046C37.2859 31.8258 37.2859 31.794 37.2859 31.794C37.2859 31.7834 37.2859 31.7728 37.2859 31.7622C37.3072 31.6881 37.3284 31.6034 37.3497 31.5293C37.4453 31.2116 37.5622 30.9045 37.7004 30.5974C37.7323 30.5127 37.7748 30.4386 37.8067 30.3539C37.8385 30.3009 37.8385 30.195 37.8385 30.1421C37.8385 30.0256 37.8385 29.8985 37.8385 29.7821C37.8385 29.6868 37.8385 29.5915 37.8173 29.4962C37.8173 29.4856 37.796 29.4009 37.7748 29.4538L37.7854 29.4326Z" fill="#593617"/>
<path d="M59.5068 29.1048C59.9319 29.4436 60.4314 29.6766 60.9415 29.846C61.324 29.9731 61.7172 30.0684 62.1211 30.1213C62.1954 30.1319 62.2698 30.1425 62.3442 30.1531L62.3017 29.9201C62.3442 30.4708 62.4505 31.032 62.7693 31.4873C62.9925 31.805 63.29 32.0592 63.6407 32.218C63.9595 32.3662 64.2996 32.4404 64.6503 32.4721C64.9372 32.4933 65.2241 32.4933 65.5004 32.4721C65.6386 32.4615 65.7767 32.4404 65.9149 32.4086L65.8617 32.0592C65.8617 32.2074 65.8617 32.3662 65.8724 32.5145C65.8724 32.5568 65.8724 32.5992 65.8724 32.6416C65.8724 32.7051 65.8724 32.8533 65.8724 32.6416C65.8724 32.7263 65.8724 32.8004 65.8724 32.8851C65.8724 33.0545 65.8724 33.224 65.8724 33.3934C65.8724 33.4358 65.8724 33.4781 65.8724 33.5205C65.8724 33.5416 65.8724 33.5628 65.8724 33.584C65.8724 33.5946 65.8724 33.6052 65.8724 33.6158C65.8724 33.6899 65.8724 33.5099 65.8724 33.5311C65.8724 33.6264 65.8724 33.7111 65.8724 33.8064C65.8724 33.9017 65.8724 33.9864 65.8724 34.0817C65.8724 34.1241 65.8724 34.177 65.8724 34.2194C65.8724 34.2405 65.8724 34.2617 65.8724 34.2829C65.8724 34.2829 65.8724 34.3041 65.8724 34.3147C65.8724 34.3147 65.8724 34.3252 65.8724 34.3358C65.8724 34.3888 65.8724 34.2405 65.8724 34.2511C65.8724 34.4417 65.8511 34.6323 65.8405 34.8229C65.8405 34.9182 65.8299 35.0241 65.8192 35.1194C65.8192 35.1194 65.8192 35.0135 65.8192 35.0559C65.8192 35.0559 65.8192 35.0665 65.8192 35.0771C65.8192 35.0877 65.8192 35.0983 65.8192 35.1088C65.8192 35.13 65.8192 35.1618 65.8192 35.183C65.8192 35.2359 65.8192 35.2783 65.8086 35.3312C65.7874 35.5324 65.7661 35.7442 65.7342 35.9454C65.7342 35.9983 65.7236 36.0513 65.713 36.1042C65.713 36.1254 65.713 36.1572 65.713 36.1784C65.713 36.1995 65.7236 36.1042 65.713 36.1466C65.713 36.1572 65.713 36.1784 65.713 36.1889C65.7023 36.2948 65.6811 36.4007 65.6598 36.5066C65.628 36.7184 65.5854 36.9408 65.5429 37.1526C65.5004 37.3644 65.4473 37.5867 65.4048 37.7985C65.3835 37.9044 65.3623 38.0209 65.3198 38.1268C65.3198 38.1162 65.3304 38.095 65.3198 38.1268C65.3198 38.1374 65.3198 38.148 65.3198 38.1585C65.3198 38.1903 65.3091 38.2115 65.2985 38.2433C65.2879 38.2962 65.2666 38.3491 65.256 38.4127C65.1285 38.868 64.9797 39.3128 64.8097 39.7575C64.6396 40.2023 64.4377 40.6788 64.2146 41.1129C63.9914 41.5471 63.7364 42.0342 63.4601 42.4684C63.1731 42.9343 62.8543 43.3896 62.5143 43.8238C62.4292 43.9297 62.3442 44.0461 62.2486 44.152V44.1309C61.8341 44.6497 61.3878 45.1368 60.899 45.6028C60.3782 46.111 59.815 46.577 59.2412 47.0217C58.6035 47.5088 57.9447 47.9536 57.2645 48.3665C56.5844 48.7795 55.8193 49.1925 55.0648 49.5631C54.3103 49.9337 53.5876 50.2514 52.8225 50.5479C52.0573 50.8444 51.3028 51.0986 50.5271 51.3209C49.7513 51.5433 48.9968 51.7339 48.221 51.8927C47.4452 52.0516 46.6801 52.1787 45.8937 52.274C45.1073 52.3693 44.3422 52.4328 43.5664 52.4646C42.7906 52.4963 42.0255 52.5069 41.2497 52.4857C40.474 52.4646 39.7088 52.4116 38.9437 52.3375C38.1785 52.2634 37.424 52.1575 36.6695 52.0304C35.915 51.9033 35.1818 51.7551 34.4379 51.5751C33.694 51.3951 32.982 51.2045 32.2593 50.9821C31.5367 50.7597 30.8353 50.5162 30.1339 50.2514C29.4326 49.9867 28.7312 49.6902 28.0511 49.3725C27.3709 49.0548 26.7333 48.7054 26.0957 48.3242C25.4581 47.943 24.8949 47.5618 24.321 47.1382C23.7472 46.7146 23.2371 46.2911 22.727 45.8251C22.2169 45.3592 21.7599 44.9039 21.303 44.4062C21.0904 44.1732 20.8885 43.9297 20.6866 43.6861V43.7073C20.2084 43.1143 19.7514 42.4895 19.337 41.833C18.9225 41.1765 18.5718 40.5517 18.253 39.874C17.9342 39.1963 17.6792 38.5503 17.456 37.8726C17.4029 37.7032 17.3497 37.5338 17.2966 37.3643C17.2753 37.2796 17.2541 37.1949 17.2328 37.1208C17.2328 37.0996 17.2222 37.0784 17.2116 37.0573C17.2116 37.0996 17.2116 37.0573 17.2116 37.0361C17.201 36.9937 17.1903 36.9408 17.1797 36.8984C17.0947 36.5702 17.0309 36.2313 16.9672 35.8925C16.9565 35.8077 16.9353 35.723 16.9247 35.6383C16.9247 35.596 16.914 35.5536 16.9034 35.5112C16.9034 35.4901 16.9034 35.4689 16.9034 35.4477C16.9034 35.4477 16.914 35.5218 16.9034 35.4795C16.9034 35.4689 16.9034 35.4477 16.9034 35.4371C16.8821 35.2677 16.8609 35.0983 16.8396 34.9288C16.8396 34.8865 16.8396 34.8547 16.829 34.8124C16.829 34.7912 16.829 34.77 16.829 34.7488C16.829 34.6641 16.829 34.8441 16.829 34.7594C16.829 34.6747 16.8184 34.59 16.8078 34.5053C16.8078 34.4629 16.8078 34.4311 16.8078 34.3888C16.8078 34.3676 16.8078 34.3464 16.8078 34.3252C16.8078 34.2405 16.8078 34.4417 16.8078 34.357C16.8078 34.2723 16.8078 34.1982 16.8078 34.1135C16.8078 34.0711 16.8078 34.0287 16.8078 33.997C16.8078 33.9334 16.8078 34.0923 16.8078 34.0817C16.8078 34.0711 16.8078 34.0605 16.8078 34.0499C16.8078 34.0287 16.8078 34.0076 16.8078 33.9864C16.8078 33.9017 16.8078 33.817 16.8078 33.7428C16.8078 33.7852 16.8078 33.9546 16.8078 33.7428C16.8078 33.7005 16.8078 33.6581 16.8078 33.6264C16.8078 33.5946 16.8078 33.5416 16.8078 33.5099C16.8078 33.4993 16.8078 33.4887 16.8078 33.4781C16.8078 33.4358 16.8078 33.5946 16.8078 33.5522C16.8078 33.5311 16.8078 33.4993 16.8078 33.4781C16.8078 33.3193 16.829 33.1604 16.8396 33.0016C16.8396 32.9592 16.8396 33.1075 16.8396 33.0545V33.0334C16.8396 33.0122 16.8396 33.0016 16.8396 32.9804C16.8396 32.9381 16.8396 32.8957 16.8503 32.8533C16.8503 32.7792 16.8715 32.6945 16.8715 32.6204C16.8715 32.5463 16.8928 32.4615 16.9034 32.3768C16.9034 32.3345 16.9034 32.2921 16.9247 32.2604C16.9247 32.2392 16.9353 32.165 16.9247 32.2604C16.9247 32.2392 16.9247 32.218 16.9247 32.1968C16.9459 32.038 16.9778 31.8685 17.0097 31.7097C17.0628 31.3814 17.1372 31.0638 17.2116 30.7461C17.2116 30.7037 17.2328 30.672 17.2435 30.6296C17.2435 30.6084 17.2435 30.5873 17.2541 30.5661C17.2541 30.5555 17.2541 30.5449 17.2541 30.5343C17.2541 30.5025 17.2541 30.5555 17.2541 30.5343C17.2753 30.4496 17.2966 30.3755 17.3179 30.2908C17.3604 30.1319 17.4135 29.9625 17.4666 29.8037C17.5623 29.486 17.6792 29.1683 17.7961 28.8612C18.0405 28.2259 18.3274 27.6117 18.6568 27.0187C18.9863 26.4257 19.3582 25.8433 19.7727 25.3032C19.8789 25.1656 19.9746 25.0385 20.0915 24.9008V24.922C20.5591 24.3396 21.0904 23.789 21.6643 23.2913C22.2381 22.7936 22.8864 22.3383 23.5559 21.9465C24.2679 21.5335 25.0118 21.1946 25.7875 20.9193C26.6164 20.6334 27.4666 20.4216 28.338 20.2945C29.3263 20.1463 30.3359 20.0933 31.3348 20.1039C32.3337 20.1145 33.2902 20.1781 34.2572 20.3263C35.0861 20.4534 35.915 20.644 36.712 20.9087C37.4028 21.1417 38.0829 21.4276 38.7205 21.777C39.305 22.0947 39.847 22.4653 40.3677 22.8783C40.8353 23.2595 41.271 23.6831 41.6748 24.1384C41.7705 24.2443 41.8661 24.3502 41.9511 24.4667V24.4455C42.1849 24.7526 42.4187 25.0703 42.6419 25.3985C42.865 25.7268 43.0563 26.0339 43.2476 26.3622C43.4389 26.6904 43.5983 26.9975 43.7577 27.3258C44.0446 27.9082 44.3103 28.5118 44.5335 29.1259C44.7885 29.8354 44.9798 30.5131 45.1179 31.2438C45.1498 31.4132 45.1817 31.5721 45.203 31.7415C45.203 31.7838 45.2136 31.8156 45.2242 31.858C45.2242 31.7944 45.2242 31.9109 45.2242 31.858C45.2242 31.8791 45.2242 31.9003 45.2242 31.9321C45.2242 32.0062 45.2455 32.0909 45.2561 32.165C45.2667 32.2392 45.2774 32.3239 45.2774 32.4086C45.2774 32.4404 45.2774 32.4827 45.2774 32.5145C45.2774 32.5357 45.2774 32.5568 45.2774 32.578C45.2774 32.578 45.2774 32.4827 45.2774 32.5251C45.2774 32.5357 45.2774 32.5568 45.2774 32.5674C45.2774 32.6416 45.288 32.7157 45.2986 32.7898C45.2986 32.8216 45.2986 32.8639 45.2986 32.8957C45.2986 32.9169 45.2986 32.9381 45.2986 32.9486C45.2986 32.9698 45.2986 33.0545 45.2986 32.9698C45.2986 32.8851 45.2986 32.9592 45.2986 32.9698C45.2986 32.9804 45.2986 33.0016 45.2986 33.0122C45.2986 33.044 45.2986 33.0863 45.2986 33.1181C45.2986 33.1498 45.2986 33.1922 45.2986 33.224C45.2986 33.2346 45.2986 33.2557 45.2986 33.2663C45.2986 33.2663 45.2986 33.2875 45.2986 33.2981C45.2986 33.2981 45.2986 33.1604 45.2986 33.224C45.2986 33.2981 45.2986 33.3616 45.2986 33.4358C45.2986 33.4675 45.2986 33.4993 45.2986 33.5311C45.2986 33.6158 45.2986 33.4146 45.2986 33.4675C45.2986 33.4887 45.2986 33.4993 45.2986 33.5205C45.2986 33.584 45.2986 33.6581 45.2986 33.7217C45.2986 33.7534 45.2986 33.7852 45.2986 33.817C45.2986 33.817 45.2986 33.8276 45.2986 33.8381C45.2986 33.8805 45.2986 33.7217 45.2986 33.764C45.2986 33.7852 45.2986 33.7958 45.2986 33.817C45.2986 33.944 45.288 34.0711 45.2774 34.1876C45.2774 34.1876 45.2774 34.1982 45.2774 34.2088C45.2774 34.2511 45.2774 34.1346 45.2774 34.1452C45.2774 34.1558 45.2774 34.177 45.2774 34.1876C45.2774 34.2194 45.2774 34.2511 45.2774 34.2723C45.2774 34.3252 45.2667 34.3888 45.2561 34.4417C45.2455 34.5476 45.2348 34.6535 45.2136 34.77C45.2136 34.7806 45.2136 34.8335 45.2136 34.77C45.2136 34.8018 45.2136 34.8229 45.203 34.8547C45.203 34.9077 45.1923 34.95 45.1817 35.003C45.1711 35.0983 45.1498 35.183 45.1286 35.2783C45.0967 35.4371 45.0648 35.596 45.0223 35.7548C45.0223 35.7866 45.001 35.8183 45.001 35.8501C45.001 35.8713 45.001 35.8819 44.9904 35.903C44.9904 35.9348 44.9904 35.903 44.9904 35.8819C44.9904 35.8819 44.9904 35.903 44.9904 35.9136C44.9798 35.9666 44.9585 36.0301 44.9479 36.0831C44.916 36.2101 44.8735 36.3372 44.8204 36.4643C44.8204 36.4643 44.8204 36.4643 44.8204 36.4749C44.7991 36.5384 44.7885 36.6231 44.7885 36.6866C44.7885 36.8031 44.7885 36.9302 44.7885 37.0467C44.7885 37.142 44.7885 37.2373 44.8098 37.3326C44.8098 37.3432 44.831 37.4279 44.8523 37.3749C44.9585 37.1102 45.0223 36.8349 45.0861 36.5596C45.2667 35.8289 45.3624 35.0771 45.4049 34.3252C45.4793 33.1075 45.4155 31.8897 45.2136 30.6931C44.9904 29.3589 44.576 28.0564 43.9915 26.8387C43.7152 26.2457 43.407 25.6527 43.0669 25.0915C42.7269 24.5302 42.3231 23.9372 41.8767 23.4184C41.4091 22.8571 40.8884 22.3383 40.3146 21.8829C39.6876 21.3746 38.9968 20.9405 38.2636 20.5804C37.4347 20.1675 36.5526 19.8604 35.6493 19.638C34.576 19.3733 33.4708 19.225 32.3656 19.1721C31.1329 19.1085 29.8789 19.1191 28.6568 19.278C27.5941 19.4156 26.5527 19.6592 25.5537 20.0298C24.6292 20.3687 23.7472 20.8028 22.9289 21.3429C22.1106 21.8829 21.4305 22.4547 20.7716 23.1219C20.1127 23.789 19.5708 24.4879 19.0713 25.2609C18.5718 26.0339 18.1786 26.8069 17.8386 27.6329C17.4985 28.4588 17.2328 29.3166 17.0309 30.1849C16.829 31.0532 16.7015 31.985 16.6484 32.8957C16.5846 33.9334 16.6058 34.9712 16.744 35.9983C16.8609 36.9302 17.0628 37.8515 17.3497 38.7409C17.6367 39.6304 17.998 40.5305 18.4337 41.3671C18.8694 42.2036 19.422 43.0931 20.0171 43.8979C20.6122 44.7027 21.3242 45.518 22.0787 46.2487C22.8651 47.0111 23.7046 47.7206 24.5973 48.356C25.5431 49.0337 26.5527 49.6372 27.5941 50.1561C28.6355 50.675 29.7833 51.1409 30.9203 51.5433C32.0574 51.9457 33.2051 52.274 34.3635 52.5599C35.5218 52.8458 36.7439 53.0576 37.9554 53.2164C39.1669 53.3752 40.3996 53.46 41.6323 53.4811C42.865 53.5023 44.1084 53.4494 45.3411 53.3117C46.5738 53.174 47.8278 52.9728 49.0393 52.6869C50.2508 52.401 51.5154 52.0198 52.7162 51.5539C53.9171 51.088 55.1285 50.5267 56.2762 49.902C57.424 49.2772 58.476 48.5889 59.4856 47.7947C60.357 47.1064 61.1859 46.3334 61.9191 45.4969C62.5674 44.745 63.1625 43.9403 63.662 43.0931C64.1189 42.3201 64.5015 41.5047 64.8203 40.6682C65.1179 39.8846 65.341 39.0798 65.5217 38.2644C65.6811 37.502 65.798 36.729 65.8724 35.956C65.9468 35.183 65.9786 34.41 65.9893 33.6264C65.9893 33.0228 65.9893 32.4298 65.968 31.8262C65.968 31.805 65.9574 31.4767 65.9149 31.4767C65.6705 31.5297 65.4154 31.5615 65.171 31.5615C64.6609 31.5826 64.1296 31.5191 63.662 31.3073C63.3644 31.1697 63.0987 30.9791 62.8862 30.7249V30.7461C62.7481 30.5661 62.6312 30.3543 62.5461 30.1319C62.5249 30.0684 62.5036 30.0048 62.4824 29.9413C62.4824 29.9095 62.4611 29.8778 62.4611 29.8566C62.4717 29.9095 62.4611 29.8566 62.4611 29.8354C62.4611 29.8142 62.4611 29.8037 62.4505 29.7825C62.4399 29.7084 62.4186 29.6448 62.408 29.5707C62.3974 29.4966 62.408 29.6236 62.408 29.5707C62.408 29.5495 62.408 29.5283 62.408 29.5072C62.408 29.4754 62.3867 29.3166 62.408 29.4648C62.408 29.4436 62.408 29.2318 62.3655 29.2318C62.1423 29.2107 61.9191 29.1683 61.696 29.1259C61.2178 29.0201 60.7396 28.8824 60.3039 28.6706C60.0276 28.5435 59.7619 28.3847 59.5281 28.1835C59.5068 28.1729 59.4856 28.3529 59.4962 28.3212C59.4856 28.4271 59.4856 28.5435 59.4856 28.6494C59.4856 28.7553 59.4856 28.8718 59.4962 28.9777C59.4962 29.0201 59.4962 29.0836 59.5281 29.1154L59.5068 29.1048Z" fill="#593617"/>
<path d="M42.1424 24.6784C42.865 24.1066 43.6089 23.5665 44.3953 23.0794C45.1073 22.6347 45.8512 22.2217 46.6163 21.8511C47.3071 21.5122 48.0191 21.2157 48.7417 20.9404C49.4006 20.6968 50.0807 20.4851 50.7608 20.305C51.3666 20.1462 51.9829 20.0085 52.6099 19.9027C53.1519 19.8074 53.6939 19.7332 54.2358 19.6803C54.6928 19.6379 55.1497 19.6062 55.6067 19.585C55.9574 19.5744 56.3187 19.5744 56.6694 19.585C56.9032 19.585 57.1476 19.6062 57.3814 19.6273C57.4877 19.6273 57.5939 19.6485 57.7002 19.6591C57.7002 19.6591 57.7002 19.6591 57.7108 19.6591V18.7378C57.4133 19.2144 57.2326 19.7332 57.1795 20.2733C57.137 20.6757 57.137 21.0886 57.1795 21.491C57.2007 21.7134 57.2433 21.9252 57.3176 22.137C57.5089 22.7088 57.8915 23.2065 58.3591 23.5877C58.4547 23.6724 58.561 23.7465 58.6673 23.8101V22.8888C58.4972 23.143 58.4228 23.45 58.3803 23.7465C58.3272 24.1172 58.3059 24.4878 58.2847 24.8584C58.2847 24.8796 58.2847 24.8902 58.2847 24.9114C58.2847 24.9325 58.2847 25.0067 58.2847 24.9114C58.2847 24.8161 58.2847 24.8902 58.2847 24.9114C58.2847 24.9325 58.2847 24.9431 58.2847 24.9643C58.2847 24.9961 58.2847 25.0278 58.2847 25.049C58.2847 25.0596 58.2847 25.0808 58.2847 25.0914C58.2847 25.1231 58.2847 25.0067 58.2847 25.0172C58.2847 25.0172 58.2847 25.0384 58.2847 25.049C58.2634 25.2714 58.2528 25.4938 58.2847 25.7161C58.2847 25.7373 58.2847 25.8538 58.3166 25.8538C58.3485 25.8538 58.3485 25.7161 58.3485 25.7161C58.3591 25.5679 58.3697 25.4196 58.3803 25.282C58.3803 25.2396 58.3803 25.1867 58.3803 25.1443C58.3803 25.0702 58.3803 25.229 58.3803 25.1973C58.3803 25.1761 58.3803 25.1549 58.3803 25.1443C58.3803 25.0702 58.3803 25.0067 58.391 24.9325C58.391 24.9008 58.391 24.869 58.391 24.8266C58.391 24.8055 58.391 24.7949 58.391 24.7737C58.391 24.9008 58.391 24.8161 58.391 24.7843C58.391 24.7102 58.4122 24.636 58.4122 24.5619C58.4122 24.509 58.4122 24.6254 58.4122 24.5619C58.4122 24.5407 58.4122 24.5196 58.4122 24.509C58.4122 24.4666 58.4228 24.4243 58.4335 24.3925C58.4335 24.3607 58.4441 24.3289 58.4547 24.2866C58.4547 24.276 58.4547 24.2548 58.4654 24.2442C58.4654 24.2125 58.4654 24.276 58.4654 24.2442C58.4654 24.2442 58.4654 24.2231 58.4654 24.2125C58.5079 24.0642 58.561 23.916 58.646 23.7889C58.6779 23.7465 58.6779 23.6195 58.6779 23.5771C58.6779 23.4818 58.6779 23.3759 58.6779 23.2806C58.6779 23.1959 58.6779 23.1006 58.6673 23.0159C58.6673 22.9841 58.6673 22.8994 58.6354 22.8782C58.4335 22.7617 58.2528 22.6029 58.0934 22.4441C57.9978 22.3594 57.9128 22.2641 57.8384 22.1687V22.1899C57.6152 21.904 57.4239 21.5758 57.307 21.2157C57.307 21.1945 57.2964 21.1628 57.2858 21.1416C57.2858 21.131 57.2858 21.1204 57.2858 21.1098C57.2858 21.0886 57.2858 21.131 57.2858 21.131V21.1098C57.2751 21.0569 57.2645 21.0039 57.2539 20.951C57.2539 20.9192 57.2539 20.898 57.2433 20.8663C57.2433 20.8451 57.2433 20.9404 57.2433 20.8875C57.2433 20.8769 57.2433 20.8557 57.2433 20.8451C57.2433 20.8345 57.2433 20.8133 57.2433 20.8027C57.2433 20.7816 57.2433 20.9086 57.2433 20.8451C57.2433 20.8345 57.2433 20.8239 57.2433 20.8027C57.2433 20.7604 57.2433 20.898 57.2433 20.8875V20.8663C57.2433 20.771 57.2433 20.8451 57.2433 20.8663C57.2433 20.9616 57.2433 20.9086 57.2433 20.8769C57.2433 20.8451 57.2433 21.0251 57.2433 20.951C57.2433 20.951 57.2433 20.9404 57.2433 20.9298C57.2433 20.8769 57.2433 21.0039 57.2433 21.0039C57.2433 20.9828 57.2433 20.9722 57.2433 20.951C57.2433 20.8769 57.2433 20.9298 57.2433 20.951C57.2433 20.9616 57.2433 21.0251 57.2433 20.951C57.2433 20.9404 57.2433 20.9192 57.2433 20.898C57.2433 20.8875 57.2433 20.8239 57.2433 20.8769C57.2433 20.9298 57.2433 20.8769 57.2433 20.8663C57.2433 20.8345 57.2539 20.8027 57.2645 20.771C57.2751 20.7392 57.2751 20.7074 57.2858 20.6757C57.2858 20.6651 57.2858 20.6439 57.2964 20.6333C57.2964 20.6333 57.2964 20.6227 57.2964 20.6121C57.2964 20.6333 57.2964 20.6333 57.2964 20.6121C57.392 20.2733 57.5302 19.9556 57.7108 19.6591C57.7427 19.6062 57.7427 19.4897 57.7427 19.4473C57.7427 19.352 57.7427 19.2461 57.7427 19.1508C57.7427 19.0661 57.7427 18.9708 57.7321 18.8861C57.7321 18.8649 57.7321 18.7484 57.7002 18.7484C57.6258 18.7484 57.5514 18.7273 57.477 18.7273C57.2645 18.7061 57.0626 18.6955 56.8501 18.6849C56.5206 18.6743 56.1912 18.6637 55.8724 18.6743C55.4367 18.6743 55.001 18.7061 54.5759 18.7378C54.0445 18.7802 53.5238 18.8437 53.0031 18.9284C52.3974 19.0238 51.8023 19.1402 51.2178 19.2885C50.5483 19.4473 49.8894 19.6379 49.2412 19.8603C48.5185 20.1039 47.8172 20.3898 47.1264 20.6968C46.3719 21.0357 45.6386 21.4169 44.9373 21.8405C44.1615 22.2958 43.407 22.8041 42.695 23.3442C42.5037 23.4818 42.323 23.6301 42.1424 23.7677C42.1105 23.7889 42.1105 23.8736 42.1105 23.9054C42.0999 24.0113 42.0999 24.1278 42.0999 24.2336C42.0999 24.3395 42.0999 24.456 42.1105 24.5619C42.1105 24.5725 42.1317 24.7102 42.1424 24.6996V24.6784Z" fill="#593617"/>
<path d="M37.7854 30.3328C38.1999 30.8941 38.6356 31.4447 39.0925 31.9848C39.5495 32.5248 40.049 33.086 40.5484 33.6155C41.0479 34.145 41.6005 34.685 42.1531 35.1933C42.7057 35.7016 43.2795 36.1887 43.864 36.6546C44.4485 37.1205 45.0117 37.5335 45.6068 37.9253C45.9788 38.1689 46.372 38.3912 46.7652 38.603C47.2753 38.8783 47.796 39.1537 48.3273 39.4078C48.9331 39.7149 49.5388 40.0008 50.1552 40.2973C50.8141 40.615 51.4729 40.9221 52.1424 41.2291C52.8119 41.5362 53.4814 41.8539 54.1509 42.161C54.3103 42.2351 54.4697 42.3092 54.6291 42.3834C54.6504 42.3834 54.6716 42.2245 54.661 42.2457C54.6716 42.1398 54.6716 42.0233 54.6716 41.9174C54.6716 41.8115 54.6716 41.6951 54.661 41.5892C54.661 41.5574 54.661 41.4621 54.6291 41.4515C53.407 40.8797 52.1849 40.3185 50.9628 39.7467C49.847 39.2172 48.7312 38.6877 47.626 38.1159C46.7971 37.6923 45.9682 37.2476 45.203 36.7075C44.0766 35.9239 43.0139 35.0556 42.0043 34.1132C40.9948 33.1708 40.0808 32.2071 39.1988 31.1694C39.0925 31.0423 38.9969 30.9258 38.8906 30.7988V30.8199C38.5293 30.3646 38.168 29.9093 37.8279 29.4328C37.796 29.401 37.796 29.4539 37.7854 29.4751C37.7642 29.5598 37.7642 29.6657 37.7642 29.761C37.7642 29.8775 37.7642 30.0046 37.7642 30.1211V30.2164C37.7642 30.2164 37.7854 30.3011 37.796 30.3328H37.7854Z" fill="#593617"/>
<path d="M24.2466 36.9619C24.1828 36.7925 24.1297 36.6124 24.0766 36.4324C24.0447 36.3371 24.0234 36.2524 24.0022 36.1571C24.0022 36.1359 23.9916 36.1042 23.9809 36.083C23.9597 36.0195 23.9809 36.0724 23.9809 36.083C23.9809 36.0724 23.9809 36.0512 23.9703 36.0406C23.9597 35.9877 23.9384 35.9241 23.9278 35.8712C23.864 35.6171 23.8109 35.3523 23.7578 35.0876C23.7365 34.9394 23.7046 34.7911 23.6834 34.6429C23.6834 34.5793 23.6834 34.717 23.6834 34.6429C23.6834 34.6217 23.6834 34.6005 23.6834 34.5793C23.6834 34.537 23.6727 34.4946 23.6621 34.4522C23.6621 34.3781 23.6409 34.2934 23.6302 34.2193C23.6302 34.1769 23.6302 34.1452 23.6196 34.1028C23.6196 34.0816 23.6196 34.0604 23.6196 34.0499C23.6196 34.0393 23.6196 34.0287 23.6196 34.0181C23.6196 33.9651 23.6196 34.124 23.6196 34.071C23.6196 33.9863 23.609 33.9016 23.5984 33.8169C23.5984 33.7745 23.5984 33.7428 23.5984 33.7004C23.5984 33.6157 23.5984 33.8275 23.5984 33.7322C23.5984 33.711 23.5984 33.6792 23.5984 33.6581C23.5984 33.6157 23.5984 33.5733 23.5984 33.5416C23.5984 33.5204 23.5984 33.4992 23.5984 33.478C23.5984 33.4674 23.5984 33.4569 23.5984 33.4463C23.5984 33.5522 23.5984 33.5839 23.5984 33.531C23.5984 33.478 23.5984 33.4251 23.5984 33.3827C23.5984 33.3616 23.5984 33.3404 23.5984 33.3192C23.5984 33.3086 23.5984 33.298 23.5984 33.2874C23.5984 33.2239 23.5984 33.4251 23.5984 33.3616C23.5984 33.2663 23.5984 33.1815 23.5984 33.0862C23.5984 33.2768 23.5984 33.1074 23.5984 33.0651C23.5984 33.0227 23.5984 32.9698 23.5984 32.9168C23.5984 32.8956 23.5984 32.8745 23.5984 32.8427C23.5984 32.8427 23.5984 32.9486 23.5984 32.8956C23.5984 32.885 23.5984 32.8745 23.5984 32.8533C23.5984 32.8109 23.5984 32.758 23.609 32.7156C23.6196 32.6733 23.609 32.6203 23.6302 32.578C23.6302 32.5568 23.6302 32.5356 23.6302 32.5144C23.6302 32.4932 23.6515 32.3979 23.6302 32.5038C23.6409 32.4085 23.6621 32.3132 23.6727 32.2285C23.7046 32.0485 23.7471 31.8685 23.7896 31.6885C23.779 31.7414 23.7896 31.6779 23.7896 31.6567C23.7896 31.6355 23.8003 31.6143 23.8109 31.5932C23.8215 31.5402 23.8428 31.4979 23.8534 31.4449C23.8853 31.3602 23.9065 31.2649 23.9384 31.1802C24.0022 31.0002 24.0766 30.8201 24.1616 30.6401C24.3316 30.2801 24.5229 29.9412 24.7567 29.6236C24.8098 29.5494 24.8736 29.4647 24.9374 29.3906V29.4118C25.5325 28.6705 26.3295 28.1305 27.169 27.6857C28.1148 27.188 29.1563 26.8386 30.2296 26.7327C31.1647 26.6374 32.1105 26.7327 33.0138 26.9869C33.864 27.2304 34.6716 27.6116 35.4049 28.0987C36.0957 28.5541 36.7226 29.1047 37.2646 29.7295C37.3284 29.8036 37.3921 29.8777 37.4453 29.9412V29.9201C37.5409 30.0577 37.6472 30.1954 37.7535 30.333C37.7853 30.3754 37.7853 30.3119 37.796 30.2907C37.8172 30.206 37.8172 30.1001 37.8172 30.0048C37.8172 29.8883 37.8172 29.7612 37.8172 29.6447V29.5494C37.8172 29.5494 37.796 29.4647 37.7853 29.433C37.2859 28.7447 36.6801 28.1199 36.0106 27.5904C35.2774 27.0186 34.4697 26.5527 33.5983 26.235C32.6738 25.8962 31.6855 25.7267 30.7078 25.7691C29.5813 25.8114 28.4868 26.1079 27.4772 26.595C26.542 27.0504 25.6494 27.6328 24.9692 28.427C24.4591 29.0306 24.0766 29.74 23.8428 30.5025C23.5877 31.2967 23.4921 32.1332 23.4602 32.9698C23.4283 33.8063 23.4815 34.6429 23.609 35.4688C23.6834 36.0089 23.8003 36.5383 23.949 37.0678C24.0234 37.3325 24.0978 37.5867 24.1935 37.8408C24.1935 37.8514 24.1935 37.862 24.2041 37.8726C24.2253 37.9255 24.2466 37.8196 24.2466 37.8302C24.2679 37.7455 24.2679 37.6396 24.2679 37.5443C24.2679 37.4278 24.2679 37.3007 24.2679 37.1843C24.2679 37.1101 24.2679 37.036 24.236 36.9725L24.2466 36.9619Z" fill="#593617"/>
<path d="M28.1999 41.7693C28.4018 41.8964 28.5931 42.0023 28.795 42.1188C29.3263 42.4153 29.8683 42.7012 30.4103 42.9765C31.186 43.3683 31.9831 43.7284 32.7801 44.0566C33.7259 44.4378 34.6823 44.7873 35.66 45.0732C36.6377 45.3591 37.7322 45.6026 38.7949 45.7297C39.8576 45.8568 40.9947 45.9097 42.0893 45.8991C43.1839 45.8885 44.2891 45.7932 45.3836 45.6344C46.4782 45.4756 47.5622 45.2426 48.6249 44.9355C49.6875 44.6284 50.7609 44.2472 51.7917 43.8025C52.8225 43.3577 53.8746 42.8177 54.8629 42.2247C55.1073 42.0764 55.3623 41.9282 55.6068 41.7693C55.6386 41.7482 55.6386 41.6529 55.6386 41.6317C55.6493 41.5258 55.6493 41.4093 55.6493 41.3034C55.6493 41.1975 55.6493 41.081 55.6386 40.9752C55.6386 40.9646 55.6174 40.8269 55.6068 40.8375C54.6185 41.4623 53.5983 42.0341 52.5356 42.5424C51.4729 43.0506 50.4633 43.4424 49.39 43.7813C48.3167 44.1201 47.2646 44.3849 46.17 44.5755C45.0755 44.7661 43.9915 44.8932 42.8863 44.9461C41.7811 44.9991 40.6653 44.9779 39.5707 44.8826C38.4761 44.7873 37.4453 44.6178 36.4039 44.3425C35.3624 44.0672 34.406 43.7601 33.4389 43.3895C32.5782 43.0612 31.7386 42.6906 30.9097 42.2988C30.2934 42.0023 29.6876 41.6952 29.0925 41.367C28.8056 41.2081 28.508 41.0387 28.2317 40.8693C28.2211 40.8693 28.2105 40.8587 28.1892 40.8481C28.168 40.8375 28.1467 41.0069 28.1574 40.9857C28.1467 41.0916 28.1467 41.2081 28.1467 41.314C28.1467 41.4199 28.1467 41.5364 28.1574 41.6423C28.1574 41.674 28.1574 41.7588 28.1892 41.7799L28.1999 41.7693Z" fill="#593617"/>
<path d="M29.8788 42.7122C29.9638 42.7122 30.0595 42.6592 30.1339 42.6275C30.3145 42.5533 30.4952 42.4686 30.6758 42.3839C31.2497 42.1086 31.8129 41.8015 32.3655 41.4838C33.0775 41.0814 33.7789 40.6473 34.4484 40.1814C35.1179 39.7154 35.8193 39.1966 36.4463 38.6353C36.9776 38.1482 37.4983 37.6188 37.8597 36.994C37.9022 36.9305 37.934 36.8563 37.9766 36.7928C38.0084 36.7399 38.0084 36.634 38.0084 36.581C38.0084 36.4645 38.0084 36.3375 38.0084 36.221C38.0084 36.1257 38.0084 36.0304 37.9872 35.9351C37.9872 35.9139 37.9659 35.8398 37.9447 35.8927C37.7853 36.1998 37.5834 36.4751 37.3708 36.7399V36.7187C36.9351 37.2587 36.4144 37.7352 35.8724 38.18C35.2773 38.6671 34.6609 39.1013 34.0233 39.5248C33.3857 39.9484 32.8012 40.2978 32.1636 40.6473C31.6748 40.9226 31.1859 41.1873 30.6758 41.4309C30.5164 41.5156 30.3464 41.5897 30.1764 41.6638C30.0914 41.7062 29.9957 41.7486 29.9001 41.7697C29.9001 41.7697 29.8788 41.7697 29.8682 41.7697C29.8469 41.7697 29.8257 41.918 29.8363 41.9074C29.8257 42.0133 29.8257 42.1298 29.8257 42.2357C29.8257 42.3416 29.8257 42.458 29.8363 42.5639C29.8363 42.5851 29.8363 42.7016 29.8682 42.7016L29.8788 42.7122Z" fill="#593617"/>
<path d="M41.9085 40.8266C41.5153 41.2078 41.1009 41.5784 40.6651 41.9067C39.9744 42.4256 39.2305 42.8915 38.476 43.3257C37.8384 43.6857 37.2008 44.0351 36.5525 44.3634C36.5206 44.374 36.5206 44.4905 36.5206 44.5011C36.51 44.6069 36.51 44.7234 36.51 44.8293C36.51 44.9352 36.51 45.0517 36.5206 45.1576C36.5206 45.1682 36.5419 45.3058 36.5525 45.2952C37.594 44.7658 38.6248 44.2046 39.6131 43.5692C40.1976 43.1986 40.7608 42.7856 41.2921 42.3303C41.5047 42.1397 41.7172 41.9491 41.9191 41.7479C41.951 41.7161 41.951 41.642 41.951 41.6102C41.9616 41.5043 41.9616 41.3878 41.9616 41.2819C41.9616 41.176 41.9616 41.0596 41.951 40.9537C41.951 40.9431 41.9191 40.8054 41.9191 40.816L41.9085 40.8266Z" fill="#593617"/>
<path d="M14.9375 48.1436C13.7154 46.7458 9.74092 41.5994 10.0704 34.2082C10.336 28.1617 13.2372 24.0002 14.9481 22.0518L15.3732 22.4224C14.0342 23.9366 10.9099 28.13 10.6336 34.2294C10.3148 41.4088 14.183 46.4069 15.3732 47.773L14.9481 48.1436H14.9375Z" fill="#593718"/>
<path d="M67.0628 48.1436L66.6377 47.773C67.8279 46.4069 71.6961 41.4088 71.3773 34.2294C71.1116 28.13 67.9767 23.9366 66.6377 22.4224L67.0628 22.0518C68.7737 23.9896 71.6749 28.1511 71.9405 34.2082C72.27 41.5994 68.2955 46.7458 67.0628 48.1436Z" fill="#593718"/>
<path d="M20.5803 53.2163C21.1861 53.5658 21.8024 53.9152 22.4188 54.2647C22.7695 54.4659 23.0458 54.6565 23.2583 54.8577C23.4709 55.0483 23.6303 55.2495 23.7153 55.4401C23.8003 55.6307 23.8534 55.8213 23.8428 56.0013C23.8322 56.1813 23.7684 56.3613 23.6728 56.5414C23.5771 56.7108 23.4603 56.8484 23.3221 56.9437C23.1946 57.039 23.0458 57.1132 22.897 57.1555C22.7482 57.1979 22.5995 57.2191 22.4507 57.2191C22.3019 57.2191 22.1638 57.2191 22.0256 57.1873L22.0044 57.2191C22.1106 57.3144 22.2275 57.4414 22.3444 57.5897C22.4613 57.7379 22.557 57.8968 22.6207 58.0662C22.6845 58.2462 22.7164 58.4368 22.7164 58.638C22.7164 58.8392 22.6526 59.051 22.5251 59.2734C22.2594 59.7393 21.8768 60.004 21.3667 60.0781C20.8566 60.1523 20.2297 59.9828 19.4858 59.5487C18.8269 59.1569 18.168 58.7863 17.4985 58.4262L17.6686 58.1297C17.8492 58.225 18.0086 58.278 18.1362 58.278C18.2637 58.278 18.3806 58.1933 18.4762 58.0133L20.6547 54.2011C20.7398 54.0635 20.761 53.9364 20.7185 53.8199C20.6866 53.714 20.5803 53.5975 20.3997 53.4811L20.5697 53.1846L20.5803 53.2163ZM19.422 58.5004C19.3476 58.638 19.3157 58.7439 19.3157 58.818C19.3157 58.8922 19.3689 58.9663 19.4751 59.0404C19.5495 59.0933 19.6452 59.1463 19.7514 59.1992C19.8577 59.2522 19.9534 59.3051 20.049 59.3369C20.4316 59.4852 20.7504 59.5063 21.0054 59.3898C21.2605 59.2734 21.4624 59.0828 21.6218 58.8074C21.7493 58.5745 21.8131 58.3627 21.8024 58.1615C21.7918 57.9603 21.7387 57.7803 21.643 57.6214C21.5474 57.4626 21.4305 57.3144 21.2817 57.1873C21.133 57.0602 20.9948 56.9649 20.8673 56.8908L20.4635 56.6684L19.4114 58.5109L19.422 58.5004ZM21.1223 56.5096C21.2498 56.5837 21.3986 56.6367 21.5474 56.6578C21.6962 56.679 21.8556 56.679 22.0044 56.6578C22.1531 56.6261 22.2913 56.5731 22.4188 56.4884C22.5463 56.4037 22.6526 56.2978 22.727 56.1601C22.9077 55.8531 22.9395 55.5777 22.8226 55.3236C22.7057 55.0695 22.4826 54.8471 22.1319 54.6353L21.7599 54.4235L20.6972 56.2766L21.1223 56.5202V56.5096Z" fill="#593718"/>
<path d="M27.2222 60.7558L26.3614 61.8888C26.2976 61.9736 26.2551 62.0477 26.2339 62.1324C26.2126 62.2171 26.2551 62.2806 26.3826 62.3336C26.4145 62.3548 26.4676 62.3654 26.5208 62.3865C26.5739 62.4077 26.6377 62.4183 26.7014 62.4395L26.6058 62.7572C26.2764 62.6513 25.9682 62.556 25.6813 62.4607C25.3943 62.3654 25.0861 62.2806 24.7673 62.1959L24.863 61.8783C24.948 61.8994 25.033 61.91 25.0968 61.9206C25.1605 61.9312 25.2243 61.9206 25.2881 61.8994C25.3518 61.8783 25.405 61.8465 25.4687 61.8041C25.5325 61.7618 25.5962 61.6876 25.6813 61.5923C25.9894 61.2217 26.3082 60.8511 26.6164 60.4699C26.9246 60.0887 27.2328 59.7075 27.5303 59.3368C27.8279 58.9662 28.1042 58.6062 28.3699 58.2673C28.6355 57.9285 28.88 57.6002 29.1031 57.3037L29.8576 57.3355L30.1871 62.8736C30.1977 62.9901 30.2083 63.096 30.2296 63.1807C30.2508 63.2654 30.2721 63.3396 30.3146 63.3925C30.3571 63.4455 30.3996 63.509 30.4528 63.5513C30.5059 63.5937 30.5803 63.6361 30.6865 63.6678L30.5909 63.9855C30.2508 63.869 29.8895 63.7631 29.5176 63.6467C29.1456 63.5302 28.7949 63.4243 28.4443 63.329L28.5399 63.0113L28.8693 63.096C28.9756 63.1172 29.0394 63.096 29.0925 63.0007C29.135 62.916 29.1563 62.8313 29.1563 62.7254L29.1031 61.3276L27.2434 60.7558H27.2222ZM28.965 58.5003H28.9331L27.541 60.3216L29.05 60.7876L28.965 58.5003Z" fill="#593718"/>
<path d="M35.0542 59.4215C35.0542 59.2521 35.0117 59.125 34.8948 59.0509C34.7779 58.9768 34.6291 58.9344 34.4591 58.9238L34.4909 58.585C34.661 58.6061 34.8416 58.6273 35.0435 58.6379C35.2454 58.6485 35.4367 58.6697 35.6386 58.6909C35.8406 58.712 36.0318 58.7226 36.2338 58.7438C36.4357 58.7544 36.6163 58.7756 36.7757 58.7862L36.7438 59.125C36.5738 59.125 36.425 59.125 36.2975 59.178C36.17 59.2309 36.0956 59.3262 36.085 59.4956L35.8937 61.6452C36.2231 61.3487 36.5526 61.0523 36.8714 60.7346C37.1902 60.4169 37.5196 60.0886 37.8703 59.7392C37.9341 59.6757 37.9872 59.6121 38.0191 59.5486C38.051 59.485 38.0722 59.4321 38.0616 59.3897C38.0616 59.3368 38.0191 59.305 37.9659 59.2733C37.9128 59.2415 37.8172 59.2203 37.7003 59.2097L37.7322 58.8709C37.9234 58.892 38.1147 58.9132 38.2848 58.9344C38.4548 58.9556 38.6354 58.9662 38.8055 58.9874C38.9755 58.9979 39.1455 59.0191 39.3262 59.0297C39.4962 59.0403 39.6875 59.0509 39.8788 59.0615L39.8469 59.4003C39.5919 59.3792 39.39 59.4003 39.2412 59.485C39.0818 59.5698 38.933 59.6757 38.763 59.8239C38.4123 60.1628 38.0935 60.4593 37.8065 60.7452C37.5196 61.0311 37.2221 61.3064 36.9139 61.6029V61.6982C37.0414 61.8888 37.1902 62.09 37.339 62.3124C37.4877 62.5347 37.6365 62.7571 37.7959 62.9795C37.9553 63.2019 38.1147 63.4242 38.2741 63.636C38.4335 63.8478 38.5929 64.0384 38.7417 64.2078C38.8799 64.3667 39.0286 64.4937 39.1774 64.589C39.3262 64.6844 39.4643 64.7585 39.5812 64.7797L39.5494 65.1185L39.0286 65.0761C38.8799 65.0656 38.7417 65.0444 38.6142 65.0338C38.4867 65.0232 38.3698 64.9914 38.2635 64.9491C38.1572 64.9067 38.051 64.8538 37.9447 64.7797C37.8384 64.7055 37.7322 64.5996 37.6259 64.4726C37.5728 64.3984 37.509 64.3243 37.4559 64.2502C37.4027 64.1761 37.3177 64.0702 37.2114 63.9219C37.1052 63.7737 36.967 63.5725 36.7864 63.3183C36.6057 63.0642 36.3613 62.7148 36.0531 62.2806C35.9787 62.1959 35.9149 62.1429 35.8724 62.1112L35.7024 64.0172C35.6918 64.1761 35.7449 64.2926 35.8618 64.3667C35.9893 64.4302 36.1275 64.4832 36.2975 64.4937L36.2656 64.8326C36.0956 64.822 35.9149 64.8008 35.7237 64.7797C35.5324 64.7585 35.3305 64.7373 35.1286 64.7267C34.9266 64.7161 34.7247 64.6949 34.5228 64.6738C34.3209 64.6632 34.1402 64.642 33.9702 64.6314L34.0021 64.2926C34.1721 64.2926 34.3209 64.2925 34.4484 64.2396C34.5759 64.1972 34.6503 64.0914 34.6716 63.9325L35.0754 59.4427L35.0542 59.4215Z" fill="#593718"/>
<path d="M44.7991 64.8539C44.4697 64.8857 44.1402 64.9175 43.8108 64.9492C43.4813 64.981 43.1519 65.0128 42.8225 65.0551L42.7906 64.7163C42.9925 64.6951 43.1519 64.6421 43.2582 64.568C43.3645 64.4939 43.407 64.3562 43.3857 64.155L42.95 59.7923C42.9394 59.6334 42.8756 59.517 42.7906 59.4428C42.695 59.3687 42.5462 59.3475 42.3336 59.3581L42.3018 59.0193C42.9606 58.9557 43.6301 58.8922 44.289 58.8181L46.4781 58.5957L46.7226 59.8982L46.34 59.9829L46.2869 59.8346C46.2444 59.7393 46.2018 59.644 46.1593 59.5593C46.1168 59.4746 46.0637 59.3899 45.9999 59.3264C45.9362 59.2628 45.8618 59.2099 45.7768 59.1781C45.6918 59.1463 45.5855 59.1358 45.458 59.1463L43.9489 59.3052L44.1721 61.4971L45.1923 61.3913C45.2986 61.3807 45.3942 61.3595 45.4686 61.3383C45.543 61.3171 45.5961 61.2854 45.6386 61.243C45.6811 61.2006 45.713 61.1371 45.7343 61.0736C45.7555 60.9995 45.7661 60.9147 45.7768 60.7983L46.1593 60.7559L46.3187 62.3549L45.9362 62.3972C45.9043 62.2702 45.8618 62.1643 45.8193 62.0901C45.7768 62.016 45.7343 61.9631 45.6811 61.9207C45.628 61.8784 45.5749 61.8572 45.5005 61.8572C45.4261 61.8572 45.3411 61.8572 45.2454 61.8572L44.2146 61.9631L44.4165 63.9856C44.4271 64.1127 44.459 64.208 44.5015 64.2821C44.544 64.3562 44.6397 64.388 44.7885 64.388L45.8724 64.2821C46.0637 64.2609 46.2231 64.2398 46.34 64.1974C46.4569 64.1656 46.5632 64.1127 46.6376 64.0386C46.7226 63.9644 46.7863 63.8691 46.8395 63.7421C46.8926 63.615 46.967 63.4456 47.0414 63.2338L47.4133 63.2867L47.2645 64.5998L44.7991 64.8433V64.8539Z" fill="#593718"/>
<path d="M51.9297 60.7981L52.4823 62.6089C52.5142 62.7254 52.5674 62.7995 52.6205 62.8524C52.6843 62.9054 52.748 62.9266 52.8224 62.9372C52.8968 62.9372 52.9818 62.9372 53.0775 62.916C53.1731 62.8948 53.2687 62.8736 53.3538 62.8419L53.4494 63.1595C53.0881 63.2654 52.6949 63.3819 52.2698 63.509C51.8447 63.636 51.4515 63.7631 51.0796 63.8796L50.9839 63.5619C51.1752 63.4984 51.3028 63.4243 51.3984 63.3396C51.494 63.2548 51.5047 63.1066 51.4515 62.8948L50.1657 58.6909C50.1232 58.532 50.0381 58.4367 49.9319 58.3838C49.8256 58.3309 49.6662 58.3309 49.4643 58.3838L49.3687 58.0661C49.9 57.9179 50.4313 57.759 50.9521 57.579L51.6003 57.3672C51.8341 57.2931 52.0785 57.2402 52.3336 57.2084C52.5886 57.1766 52.833 57.1766 53.0775 57.2084C53.3113 57.2508 53.5238 57.3355 53.7151 57.4837C53.9064 57.6214 54.0445 57.8438 54.1295 58.1297C54.2358 58.4791 54.2252 58.8285 54.1083 59.1674C53.9914 59.5063 53.7788 59.8028 53.4813 60.0463L53.5025 60.1098C53.6407 60.2369 53.8107 60.3746 53.9914 60.5334C54.172 60.6922 54.3633 60.8405 54.5546 60.9887C54.7459 61.137 54.9159 61.2747 55.086 61.3911C55.256 61.5182 55.3941 61.6135 55.4898 61.677C55.6385 61.7829 55.7767 61.8465 55.9149 61.8888C56.0424 61.9312 56.1699 61.9418 56.308 61.91L56.4143 62.2383L55.9149 62.3971C55.7554 62.4395 55.6173 62.4712 55.511 62.4924C55.4048 62.5136 55.3091 62.5136 55.2135 62.503C55.1285 62.4924 55.0328 62.4606 54.9478 62.4183C54.8522 62.3759 54.7459 62.3018 54.6077 62.2171C54.5121 62.1536 54.3952 62.0688 54.2358 61.9418C54.0764 61.8253 53.917 61.6876 53.7363 61.5394C53.5557 61.3911 53.3856 61.2429 53.205 61.0946C53.0243 60.9464 52.8649 60.8087 52.7268 60.6922C52.663 60.6393 52.5992 60.6075 52.5567 60.5969C52.5036 60.5969 52.4505 60.5969 52.3867 60.6075L51.9191 60.7558L51.9297 60.7981ZM51.0796 58.0344L51.7916 60.3534L52.3123 60.1946C52.5249 60.131 52.6843 60.0357 52.8118 59.9086C52.9393 59.7816 53.0349 59.6333 53.0881 59.4851C53.1412 59.3368 53.1837 59.178 53.1837 59.0192C53.1837 58.8603 53.1837 58.7227 53.1518 58.6062C53.0881 58.3944 53.0137 58.225 52.9074 58.1085C52.8012 57.992 52.6736 57.8967 52.5355 57.8543C52.3973 57.8014 52.2379 57.7802 52.0785 57.7908C51.9085 57.8014 51.7491 57.8332 51.5791 57.8861L51.0796 58.0344Z" fill="#593718"/>
<path d="M61.2604 58.6805C61.3242 58.8075 61.3986 58.9028 61.4623 58.9664C61.5261 59.0405 61.6005 59.0829 61.6749 59.104C61.7492 59.1252 61.8449 59.1146 61.9405 59.0934C62.0468 59.0617 62.1637 59.0193 62.3125 58.9558L62.4719 59.2523L60.1446 60.523L59.9852 60.2265C60.1233 60.1418 60.2296 60.0571 60.304 59.9935C60.3784 59.9194 60.4315 59.8453 60.4634 59.7712C60.4846 59.697 60.4846 59.6123 60.4634 59.517C60.4421 59.4217 60.389 59.3158 60.3252 59.1888L59.7301 58.1087C59.677 58.0133 59.6026 57.9286 59.507 57.8545C59.4113 57.7804 59.3263 57.7274 59.2413 57.6745L56.9565 56.4038C56.829 56.3403 56.7227 56.2873 56.6377 56.2555C56.5527 56.2238 56.457 56.2026 56.3826 56.2026C56.2976 56.2026 56.2232 56.2026 56.1382 56.2344C56.0532 56.2555 55.9682 56.2979 55.8725 56.3402L55.7131 56.0438C56.0319 55.8743 56.372 55.6943 56.7333 55.4931C57.0946 55.2919 57.4241 55.1119 57.7429 54.9319L57.9023 55.2284C57.7429 55.3131 57.6472 55.3872 57.6047 55.4508C57.5622 55.5143 57.6047 55.5778 57.7004 55.6308L59.7514 56.8379L59.8151 56.8062L59.7939 54.5719C59.7939 54.4871 59.7833 54.4236 59.7514 54.3812C59.7301 54.3389 59.6982 54.3177 59.6664 54.3177C59.6238 54.3177 59.5813 54.3177 59.5282 54.3495C59.4751 54.3707 59.4113 54.4024 59.3475 54.4342L59.1881 54.1483C59.4963 53.9894 59.7726 53.8412 60.017 53.7035C60.2721 53.5659 60.5378 53.4176 60.8141 53.2588L60.9841 53.5659C60.8247 53.6612 60.7078 53.7777 60.6122 53.9047C60.5271 54.0318 60.4846 54.2118 60.474 54.4236L60.4315 57.0709C60.4315 57.1662 60.4634 57.2615 60.5059 57.3356C60.5484 57.4098 60.5909 57.4839 60.6228 57.5474L61.2498 58.6911L61.2604 58.6805Z" fill="#593718"/>
<path d="M29.3794 12.469C29.4325 12.5008 29.4963 12.5219 29.5601 12.5219C29.6238 12.5219 29.6982 12.5219 29.762 12.5008C29.8257 12.4796 29.9001 12.4584 29.9745 12.4372L30.102 12.7231C29.9533 12.7867 29.7938 12.8608 29.6132 12.9349C29.4325 13.009 29.2625 13.0832 29.0818 13.1573C28.9012 13.2314 28.7312 13.3161 28.5611 13.3903C28.3911 13.4644 28.2423 13.5385 28.0935 13.602L27.966 13.3055C28.1254 13.2314 28.2317 13.1467 28.3061 13.062C28.3805 12.9773 28.3911 12.8608 28.338 12.7231L26.8502 9.37695L26.797 9.39813L26.8608 13.7503L26.2976 13.9938L23.2795 10.9865L23.2158 11.0077L24.6185 14.3327C24.6823 14.4704 24.7673 14.5445 24.8842 14.5551C25.0011 14.5551 25.1286 14.5339 25.2774 14.4809L25.4049 14.7669C25.118 14.8833 24.8311 14.9998 24.5229 15.1375C24.2253 15.2751 23.9278 15.4022 23.6302 15.5399L23.5027 15.254C23.5665 15.2222 23.6302 15.1798 23.7046 15.1375C23.779 15.0951 23.8215 15.0422 23.8746 14.9892C23.9171 14.9363 23.949 14.8728 23.9703 14.8092C23.9915 14.7457 23.9809 14.6716 23.949 14.608L22.4081 10.7112C22.3444 10.5524 22.2487 10.4782 22.1318 10.4676C22.0149 10.4676 21.8768 10.4888 21.7174 10.5524L21.5898 10.2664L23.2158 9.55697L26.2444 12.6172L26.1701 8.27567L27.6685 7.61914L27.796 7.90505C27.6366 7.97917 27.5197 8.06389 27.4453 8.15919C27.3709 8.26508 27.3815 8.40274 27.4559 8.58276L29.2306 12.289C29.2625 12.3737 29.3156 12.4266 29.3688 12.4584L29.3794 12.469Z" fill="#593718"/>
<path d="M34.8735 6.01972C35.3198 5.95618 35.7449 5.97736 36.1275 6.07266C36.51 6.16797 36.8395 6.3268 37.1264 6.53859C37.4133 6.75037 37.6471 7.02569 37.8278 7.34337C38.0084 7.66104 38.1253 8.02108 38.1891 8.41288C38.2529 8.86821 38.2316 9.28119 38.1253 9.66241C38.0191 10.0436 37.849 10.3825 37.6152 10.679C37.3815 10.9755 37.0945 11.2084 36.7651 11.3884C36.425 11.5685 36.0637 11.6955 35.6705 11.7485C35.2348 11.812 34.8416 11.7908 34.459 11.6955C34.0871 11.6002 33.747 11.452 33.4601 11.2296C33.1732 11.0178 32.9288 10.7425 32.7481 10.4248C32.5674 10.1072 32.4399 9.74712 32.3868 9.34473C32.323 8.88939 32.3443 8.46582 32.4399 8.08461C32.5356 7.7034 32.7056 7.36455 32.9288 7.07864C33.1519 6.79273 33.4389 6.54918 33.7683 6.36916C34.0977 6.18914 34.4697 6.06207 34.8629 6.00913L34.8735 6.01972ZM35.7236 11.3143C36.0318 11.272 36.2869 11.1661 36.4994 11.0072C36.712 10.8484 36.8714 10.6366 36.9776 10.4036C37.0945 10.1601 37.1583 9.89537 37.1902 9.59887C37.222 9.30237 37.2114 9.00587 37.1689 8.69879C37.1264 8.37052 37.0308 8.06343 36.8926 7.76694C36.7545 7.47044 36.5844 7.22689 36.3825 7.0151C36.1806 6.80332 35.9468 6.65507 35.6811 6.54918C35.4155 6.44328 35.1285 6.41152 34.831 6.45387C34.5122 6.49623 34.2571 6.60212 34.0552 6.77155C33.8533 6.94098 33.6939 7.14217 33.5876 7.38572C33.4814 7.62928 33.407 7.89401 33.3857 8.1905C33.3538 8.47641 33.3645 8.77291 33.407 9.05882C33.4495 9.39767 33.5451 9.71535 33.6833 10.0118C33.8214 10.3083 33.9915 10.5519 34.1934 10.7637C34.3953 10.9755 34.6291 11.1237 34.8947 11.2296C35.1604 11.3355 35.4367 11.3673 35.7343 11.3249L35.7236 11.3143Z" fill="#593718"/>
<path d="M43.0987 8.84705L42.9499 10.6154C42.9499 10.7213 42.9499 10.8166 42.9924 10.8802C43.0243 10.9437 43.0774 10.9967 43.1412 11.0284C43.205 11.0602 43.2793 11.092 43.3644 11.1026C43.4494 11.1131 43.545 11.1343 43.63 11.1343L43.6088 11.452C43.2581 11.4202 42.8755 11.3779 42.4611 11.3461C42.0572 11.3143 41.6641 11.2826 41.3027 11.2614L41.324 10.9543C41.5046 10.9543 41.6534 10.9543 41.7597 10.9014C41.866 10.859 41.9404 10.7425 41.9616 10.5413L42.3017 6.45389C42.3123 6.30564 42.2804 6.18916 42.206 6.10444C42.1316 6.01973 41.9935 5.96678 41.8022 5.94561L41.8235 5.62793C42.3335 5.68088 42.8543 5.72323 43.3644 5.755L44.002 5.79736C44.2251 5.81854 44.4589 5.8503 44.6927 5.91384C44.9265 5.97737 45.1391 6.0515 45.3303 6.16798C45.5216 6.28446 45.6704 6.43271 45.7873 6.62332C45.9042 6.81392 45.9467 7.04688 45.9255 7.33279C45.8936 7.67165 45.7661 7.96815 45.5429 8.22229C45.3197 8.47643 45.0328 8.65644 44.6927 8.76234V8.82587C44.7671 8.98471 44.8628 9.16473 44.969 9.36592C45.0753 9.56712 45.1816 9.75772 45.2985 9.95892C45.4047 10.1495 45.511 10.3295 45.6173 10.499C45.7235 10.6578 45.8086 10.7955 45.8723 10.8908C45.968 11.0284 46.0636 11.1343 46.1592 11.219C46.2549 11.2932 46.3718 11.3461 46.4887 11.3779L46.4568 11.6955L45.968 11.6532C45.8086 11.632 45.681 11.6214 45.5854 11.6002C45.4791 11.5791 45.3941 11.5473 45.3303 11.5155C45.256 11.4732 45.1922 11.4202 45.1284 11.3461C45.0647 11.272 44.9903 11.1767 44.9053 11.0496C44.8521 10.9649 44.7777 10.8484 44.6821 10.6896C44.5865 10.5307 44.4908 10.3613 44.3952 10.1707C44.2889 9.9801 44.1933 9.78949 44.087 9.60947C43.9807 9.41887 43.8957 9.24944 43.8213 9.0906C43.7788 9.01648 43.7469 8.97412 43.7044 8.94235C43.6619 8.91059 43.6194 8.9 43.5556 8.9L43.0987 8.85764V8.84705ZM43.3325 6.16798L43.1412 8.42348L43.6513 8.46584C43.8532 8.48702 44.0339 8.46584 44.1826 8.39171C44.342 8.32818 44.4696 8.23288 44.5758 8.11639C44.6821 7.99991 44.7671 7.88343 44.8203 7.74577C44.8734 7.60811 44.9159 7.49163 44.9372 7.37515C44.9584 7.17395 44.9372 6.99394 44.8946 6.85628C44.8415 6.71862 44.7671 6.60214 44.6608 6.50683C44.5546 6.41153 44.4271 6.348 44.2783 6.29505C44.1295 6.25269 43.9701 6.22093 43.8107 6.19975L43.3325 6.15739V6.16798Z" fill="#593718"/>
<path d="M52.9074 8.96377C52.9499 8.66727 52.9074 8.39195 52.7693 8.15899C52.6311 7.92603 52.408 7.74601 52.0892 7.64012C51.8129 7.56599 51.5791 7.56599 51.3984 7.6613C51.2177 7.74601 51.0902 7.90485 51.0265 8.11663C50.9733 8.28606 50.9627 8.43431 50.984 8.57197C51.0052 8.70963 51.0583 8.8367 51.1327 8.96377C51.2071 9.08025 51.3028 9.19673 51.409 9.31321C51.5259 9.42969 51.6428 9.54618 51.7703 9.66266C51.951 9.83208 52.1317 10.0015 52.3017 10.1604C52.4717 10.3192 52.6099 10.4886 52.7268 10.6686C52.8437 10.8381 52.9181 11.0287 52.9606 11.2193C53.0031 11.4099 52.9818 11.6217 52.9181 11.8546C52.8437 12.0982 52.7374 12.2994 52.5886 12.4582C52.4398 12.617 52.2592 12.7335 52.0466 12.8077C51.8341 12.8818 51.6003 12.9241 51.3346 12.9135C51.069 12.9135 50.7927 12.8606 50.4951 12.7759C50.3676 12.7441 50.2507 12.7018 50.1444 12.6594C50.0382 12.617 49.9213 12.5641 49.8044 12.5006C49.6875 12.437 49.5599 12.3523 49.4324 12.2464C49.2943 12.1405 49.1455 12.0135 48.9861 11.8652C48.9861 11.8123 48.9967 11.7381 49.018 11.6428C49.0392 11.5475 49.0605 11.4311 49.0817 11.3146C49.103 11.1875 49.1242 11.071 49.1561 10.944C49.188 10.8169 49.2092 10.711 49.2305 10.6051L49.6131 10.6898C49.6131 10.8486 49.6131 11.0075 49.645 11.1769C49.6662 11.3463 49.7193 11.5158 49.8044 11.664C49.8894 11.8123 49.9956 11.9605 50.1444 12.0876C50.2932 12.2147 50.4845 12.31 50.7183 12.3841C50.8458 12.4264 50.9733 12.437 51.1008 12.437C51.2284 12.437 51.3453 12.4159 51.4515 12.3735C51.5578 12.3311 51.6534 12.2676 51.7385 12.1829C51.8235 12.0982 51.8872 11.9923 51.9297 11.8546C51.9723 11.6958 51.9935 11.5369 51.9829 11.3993C51.9723 11.251 51.9297 11.1134 51.866 10.9863C51.8022 10.8486 51.7066 10.7216 51.5791 10.5839C51.4515 10.4463 51.3134 10.298 51.154 10.1498C51.0265 10.0333 50.8883 9.90621 50.7395 9.75796C50.5908 9.60971 50.4526 9.44028 50.3357 9.27086C50.2188 9.09084 50.1232 8.90023 50.07 8.70963C50.0169 8.50843 50.0169 8.30724 50.07 8.09545C50.1338 7.89426 50.2188 7.72483 50.357 7.57658C50.4845 7.42833 50.6439 7.32244 50.8245 7.24832C51.0052 7.17419 51.2177 7.13184 51.4622 7.13184C51.696 7.13184 51.9616 7.17419 52.2379 7.24832C52.5249 7.33303 52.7799 7.43892 53.0031 7.56599C53.2262 7.69306 53.4494 7.84131 53.6726 8.01074L53.3325 9.04848L52.9393 8.97436L52.9074 8.96377Z" fill="#593718"/>
<path d="M57.1582 13.1993L56.1487 14.0676C56.0743 14.1312 56.0212 14.1947 55.9786 14.2688C55.9361 14.3324 55.9786 14.4065 56.0743 14.4912C56.1062 14.5124 56.1487 14.5336 56.1912 14.5653C56.2337 14.5865 56.2868 14.6183 56.3506 14.6501L56.2018 14.9254C55.9255 14.7665 55.6598 14.6183 55.4154 14.4806C55.171 14.343 54.9053 14.2053 54.6396 14.0676L54.7884 13.7923C54.8628 13.8241 54.9372 13.8559 54.9903 13.877C55.0541 13.8982 55.1072 13.8982 55.171 13.8982C55.2348 13.8982 55.2879 13.877 55.3623 13.8453C55.426 13.8135 55.5004 13.7606 55.5961 13.697C55.9574 13.4217 56.3081 13.1358 56.6694 12.8499C57.0307 12.564 57.3814 12.2675 57.7215 11.9922C58.0615 11.7063 58.391 11.4415 58.6991 11.1768C59.0073 10.9121 59.2943 10.6685 59.5599 10.4355L60.24 10.605L59.4749 15.7302C59.4643 15.8466 59.4537 15.9419 59.4537 16.0161C59.4537 16.1008 59.4643 16.1643 59.4855 16.2278C59.5068 16.2914 59.5387 16.3443 59.5812 16.3973C59.6237 16.4502 59.6874 16.5032 59.7725 16.5455L59.6237 16.8208C59.3261 16.6514 59.0286 16.482 58.7098 16.3126C58.391 16.1431 58.0934 15.9737 57.7852 15.8149L57.934 15.5395L58.2209 15.6772C58.3059 15.7196 58.3803 15.6984 58.4335 15.6349C58.4866 15.5713 58.5291 15.4866 58.5504 15.4019L58.7735 14.11L57.1795 13.2311L57.1582 13.1993ZM59.188 11.4627H59.1561L57.5302 12.8499L58.816 13.5594L59.1774 11.4521L59.188 11.4627Z" fill="#593718"/>
</g>
<defs>
<clipPath id="clip0_2371_280">
<rect width="61.902" height="59.4902" fill="white" transform="translate(10.0491 5.62793)"/>
</clipPath>
</defs>
</svg>
